<?xml version="1.0" standalone="no"?>
<!DOCTYPE svg PUBLIC "-//W3C//DTD SVG 20010904//EN"
 "http://www.w3.org/TR/2001/REC-SVG-20010904/DTD/svg10.dtd">
<svg version="1.0" xmlns="http://www.w3.org/2000/svg"
 width="807.000000pt" height="807.000000pt" viewBox="0 0 807.000000 807.000000"
 preserveAspectRatio="xMidYMid meet">

<g transform="translate(0.000000,807.000000) scale(0.100000,-0.100000)"
fill="#000000" stroke="none">
<path d="M0 4035 l0 -4035 4035 0 4035 0 0 4035 0 4035 -4035 0 -4035 0 0
-4035z m4370 3645 c380 -34 783 -138 1132 -293 161 -71 358 -174 358 -187 0
-9 -204 -80 -230 -80 -8 0 -78 29 -155 64 -679 309 -1369 389 -2115 245 -558
-108 -1035 -331 -1488 -694 -502 -403 -858 -896 -1085 -1501 -246 -658 -277
-1423 -85 -2118 l30 -108 -21 -15 c-53 -37 -67 -127 -28 -184 21 -32 55 -50
120 -64 21 -4 31 -16 44 -48 9 -23 48 -105 86 -182 120 -245 238 -432 383
-611 46 -57 84 -107 84 -110 0 -4 -21 -45 -47 -92 l-46 -86 -54 57 c-29 32
-86 101 -126 155 -477 631 -724 1341 -744 2139 -8 326 13 550 82 858 178 801
605 1502 1230 2020 345 287 636 458 1027 606 310 117 710 208 1018 232 107 8
525 6 630 -3z m1703 -949 c-109 -215 -201 -384 -204 -378 -3 7 -16 54 -29 105
-12 50 -25 92 -29 92 -9 0 -681 -709 -681 -718 0 -4 190 -52 423 -106 232 -55
430 -102 441 -106 14 -5 -74 -75 -392 -313 -225 -169 -415 -307 -421 -307 -6
0 -11 11 -11 25 0 14 -9 33 -20 43 -42 36 -278 165 -408 223 -74 33 -145 67
-157 75 -34 22 -197 84 -222 84 -39 0 -151 -48 -296 -126 l-142 -77 -110 2
c-60 1 -135 -3 -165 -9 -62 -12 -93 -38 -214 -179 -69 -79 -78 -86 -197 -145
-122 -60 -124 -62 -152 -116 -107 -208 -107 -208 -187 -254 -41 -23 -96 -53
-122 -65 -83 -39 -88 -51 -90 -225 -1 -106 -3 -133 -8 -91 -3 33 -6 110 -5
172 0 105 1 113 25 138 14 15 60 44 102 66 146 73 151 78 217 201 32 62 67
124 77 137 9 13 68 48 130 78 101 48 119 60 171 120 95 110 156 174 178 186
11 7 89 14 180 18 l160 6 148 80 c81 44 178 91 216 103 l69 24 83 -33 c46 -18
102 -43 124 -55 51 -29 297 -139 311 -139 15 0 304 174 304 183 0 11 7 9 -500
100 -250 45 -458 85 -461 89 -4 3 41 44 100 91 859 691 1291 1044 1284 1050
-4 4 -45 20 -90 35 -46 14 -83 31 -83 35 0 12 844 289 848 279 2 -5 -86 -184
-195 -398z m379 46 c689 -616 1115 -1453 1214 -2390 20 -193 15 -640 -10 -822
-111 -804 -467 -1525 -1031 -2090 -834 -837 -1959 -1212 -3130 -1044 -600 86
-1188 333 -1676 705 -149 115 -147 106 -37 143 51 17 101 31 112 31 10 0 48
-22 85 -49 329 -243 688 -419 1091 -537 175 -51 257 -65 264 -43 5 14 39 356
80 819 15 159 26 376 30 542 l5 277 -36 78 c-20 43 -38 98 -41 122 -4 38 -2
46 19 62 13 10 27 19 32 19 4 0 7 -37 7 -82 0 -71 3 -85 25 -114 l25 -33 1
-248 c0 -189 -7 -349 -31 -673 -33 -440 -44 -780 -25 -787 12 -4 61 322 70
462 3 44 18 247 34 450 17 204 34 433 40 510 12 177 39 253 118 333 47 48 152
109 214 125 39 10 10 25 -63 32 -181 17 -265 38 -334 86 -34 23 -43 36 -48 70
-4 23 -16 55 -27 71 l-20 28 31 18 c68 37 68 37 13 65 -129 66 -311 235 -281
262 17 16 332 205 341 205 4 0 7 -7 7 -15 0 -24 7 -19 68 46 53 57 61 61 127
75 91 19 157 50 227 107 74 60 132 89 171 85 l32 -3 6 -140 c3 -86 12 -165 23
-205 25 -91 76 -220 87 -220 13 0 11 17 -10 95 -34 122 -43 224 -31 338 15
140 23 165 72 224 l43 52 75 0 c41 1 120 8 174 16 55 8 105 15 112 15 7 0 28
-28 46 -62 34 -65 100 -138 124 -138 21 0 17 14 -11 40 -24 22 -47 81 -59 147
-9 56 50 86 88 44 41 -45 274 -127 297 -104 8 8 1 13 -23 18 -83 18 -194 97
-218 156 -12 28 -11 32 20 64 45 46 30 56 -32 22 -118 -66 -300 -117 -419
-117 -89 0 -211 25 -269 55 -67 35 -88 121 -49 202 28 58 86 106 220 182 63
35 129 77 147 93 18 15 41 28 52 28 10 0 33 12 51 28 l33 27 220 7 c122 4 228
8 236 9 34 5 47 -4 94 -60 26 -33 87 -92 135 -133 174 -148 197 -188 189 -332
-4 -75 -10 -93 -81 -249 -42 -93 -85 -181 -96 -195 -10 -15 -21 -46 -24 -70
-6 -46 -63 -176 -97 -220 -39 -50 -184 -194 -244 -240 l-58 -47 6 -69 c4 -39
14 -97 23 -131 21 -77 20 -224 -1 -283 -23 -63 -12 -347 25 -637 16 -126 34
-300 39 -385 11 -167 26 -301 40 -365 5 -22 18 -110 30 -195 12 -85 23 -156
25 -158 11 -11 283 101 455 188 495 251 905 608 1237 1076 347 488 545 996
619 1589 22 171 24 574 5 745 -60 535 -245 1074 -522 1518 -131 211 -242 347
-472 577 l-219 220 41 82 c22 46 45 83 50 83 5 0 51 -38 103 -83z m191 -1258
c185 -32 306 -57 304 -64 -6 -18 -532 -381 -535 -369 -2 7 4 40 13 74 9 34 14
65 10 68 -8 9 -710 -223 -710 -235 0 -6 114 -111 253 -234 228 -201 251 -224
230 -231 -12 -4 -180 -30 -373 -58 -192 -28 -357 -53 -364 -56 -11 -4 -3 -16
27 -43 60 -55 52 -62 -10 -9 -29 25 -92 96 -140 159 -90 117 -107 130 -164
121 -36 -5 -49 9 -35 36 9 17 27 20 148 26 212 10 313 18 313 25 0 3 -50 44
-110 91 -60 47 -109 91 -107 97 1 7 140 116 310 242 253 189 316 231 355 239
26 6 103 20 172 33 69 12 129 25 134 30 5 5 -12 32 -40 65 l-48 57 29 -5 c17
-3 168 -30 338 -59z m-2174 -220 c256 -99 340 -136 444 -198 l110 -66 -99 -5
c-69 -4 -111 -12 -139 -25 -37 -19 -40 -23 -43 -67 -2 -27 1 -48 5 -48 4 0 28
14 52 30 57 39 126 58 221 62 l75 3 -2 -124 c-1 -80 -5 -127 -13 -135 -9 -8
-11 -4 -6 19 3 17 6 66 8 110 l3 80 -27 3 c-20 2 -25 7 -21 19 11 27 -84 9
-177 -33 -100 -46 -110 -62 -110 -177 0 -92 -12 -117 -47 -98 -15 8 -22 31
-32 113 -13 105 -12 116 24 201 7 17 4 18 -36 12 -57 -8 -168 31 -306 108 -54
31 -110 63 -125 71 -32 17 -39 65 -13 86 14 12 21 50 10 50 -12 0 -72 -34
-129 -73 -51 -34 -93 -54 -175 -83 -36 -12 14 -24 135 -33 148 -10 190 -24
350 -114 131 -73 157 -90 161 -103 3 -8 -7 -9 -36 -1 -73 20 -238 -30 -328
-99 -28 -21 -33 -32 -33 -65 0 -26 5 -42 15 -45 8 -4 15 -18 15 -33 0 -14 12
-77 27 -139 26 -105 26 -113 10 -129 -16 -16 -18 -16 -31 2 -8 11 -32 70 -52
130 -30 89 -37 125 -37 186 l0 76 -86 0 c-47 0 -120 8 -161 17 -108 23 -253
67 -268 81 -8 7 -16 40 -19 74 -3 33 -10 61 -15 61 -12 0 -78 -139 -78 -165 0
-18 18 -27 131 -63 71 -23 181 -51 243 -61 132 -23 175 -38 204 -76 41 -52 17
-130 -64 -206 -49 -46 -141 -105 -149 -97 -12 11 60 102 114 144 66 51 72 75
12 45 -71 -37 -251 -249 -251 -297 0 -7 11 -15 25 -18 18 -5 25 -13 25 -30 0
-14 23 -62 52 -108 145 -233 148 -238 212 -258 49 -16 99 -7 149 25 21 15 36
22 32 16 -3 -6 -30 -25 -58 -41 -68 -39 -118 -40 -178 -1 -58 37 -84 66 -165
186 -78 116 -130 221 -141 289 l-8 48 -65 22 c-122 43 -205 87 -296 156 -87
67 -104 89 -128 163 -11 34 -26 16 -47 -55 -18 -61 -30 -80 -70 -119 -27 -25
-49 -48 -49 -52 0 -4 39 -5 88 -1 l87 6 95 -61 c52 -34 129 -78 170 -97 161
-74 163 -76 197 -133 20 -33 29 -57 23 -61 -6 -4 2 -28 20 -61 45 -82 41 -116
-22 -190 -29 -34 -69 -71 -89 -82 -36 -21 -37 -21 -78 -3 -23 11 -44 16 -48
13 -3 -4 10 -23 28 -44 19 -21 44 -54 56 -74 32 -51 64 -64 153 -64 124 1 194
37 210 107 l7 33 11 -28 c15 -35 2 -65 -43 -95 -67 -46 -170 -64 -245 -42 -25
7 -43 7 -62 -1 -33 -14 -35 -25 -7 -47 13 -11 18 -23 14 -35 -10 -24 -24 -21
-57 10 -27 26 -29 26 -56 11 -15 -9 -256 -147 -537 -308 -280 -161 -514 -296
-519 -301 -5 -5 -7 -11 -4 -14 3 -3 202 -41 443 -85 240 -43 440 -81 443 -84
3 -3 3 -8 1 -9 -2 -2 -204 -165 -449 -362 -800 -645 -850 -686 -845 -695 3 -5
44 -21 90 -37 47 -15 85 -30 85 -33 0 -3 -191 -69 -425 -147 -234 -78 -425
-137 -425 -132 0 12 364 737 383 763 12 16 16 10 36 -70 13 -49 27 -95 31
-102 5 -10 101 86 309 304 166 175 300 322 298 328 -2 5 -186 52 -410 104
-223 53 -404 99 -401 103 2 5 337 261 744 570 407 310 740 565 740 568 0 3
-25 23 -56 44 -65 46 -29 63 -307 -145 l-198 -149 -157 -9 c-86 -5 -165 -10
-174 -10 -31 0 -20 -16 52 -71 38 -29 70 -56 70 -60 0 -3 -30 -29 -67 -56 -38
-27 -203 -151 -369 -275 -299 -223 -302 -225 -370 -237 -101 -18 -99 -16 -69
-55 22 -29 24 -38 15 -55 -6 -12 -18 -21 -28 -21 -31 1 -611 105 -617 112 -3
3 123 97 281 207 157 111 288 200 291 198 2 -3 -5 -39 -15 -81 -18 -69 -19
-76 -3 -76 20 0 639 204 648 214 4 4 -5 17 -19 29 -134 111 -476 422 -470 427
4 4 61 14 127 24 177 25 1115 165 1153 171 34 6 41 25 17 45 -11 9 -14 22 -9
46 5 27 3 34 -10 34 -14 0 -16 14 -16 94 0 144 1 145 178 263 l114 75 56 115
56 115 82 38 c45 21 99 43 121 50 52 17 58 23 114 110 26 42 59 86 72 98 26
25 147 54 274 67 74 8 100 19 183 75 31 21 70 45 87 54 46 23 192 65 232 65
18 1 81 -17 140 -40z m106 -460 c0 -7 -8 -15 -17 -17 -18 -3 -25 18 -11 32 10
10 28 1 28 -15z m-240 -67 c-19 -16 -90 -69 -105 -77 -36 -21 17 30 59 57 43
27 65 37 46 20z m1271 -514 l29 -33 -32 29 c-18 17 -33 31 -33 33 0 8 8 1 36
-29z m-1865 -225 c13 -16 12 -17 -3 -4 -17 13 -22 21 -14 21 2 0 10 -8 17 -17z
m135 -199 c15 -25 25 -47 23 -49 -2 -2 -19 21 -36 51 -18 30 -28 52 -23 49 5
-3 22 -26 36 -51z m-756 -733 c11 -29 83 -101 185 -189 l50 -42 -40 6 c-22 4
-45 9 -52 13 -7 3 -55 53 -108 110 -77 83 -93 106 -84 117 18 22 36 16 49 -15z
m228 -1043 l-1 -273 -8 225 c-6 200 -4 320 7 320 2 0 3 -123 2 -272z"/>
<path d="M4700 4501 c0 -5 7 -14 15 -21 9 -7 14 -19 11 -26 -2 -6 6 -22 19
-34 13 -13 34 -47 47 -77 19 -47 26 -54 45 -50 13 2 28 -2 34 -9 16 -20 89
-19 89 1 0 27 -123 158 -180 192 -56 33 -80 40 -80 24z"/>
<path d="M4374 4297 c-17 -18 -58 -52 -92 -76 -37 -27 -68 -59 -78 -80 -17
-35 -17 -37 8 -81 35 -63 77 -85 158 -84 100 2 286 81 266 112 -4 6 -26 20
-49 30 -56 25 -121 98 -144 161 -10 28 -22 51 -28 50 -5 0 -24 -14 -41 -32z
m41 -54 c10 -16 43 -52 74 -81 31 -29 48 -49 37 -44 -23 11 -126 112 -126 124
0 4 -4 8 -10 8 -19 0 -10 -37 25 -94 19 -32 35 -63 35 -68 0 -24 -141 -61
-186 -49 -39 10 -60 52 -44 90 13 33 57 77 115 115 50 33 59 33 80 -1z"/>
<path d="M5026 4293 c12 -27 17 -123 7 -123 -5 0 -19 13 -31 30 -30 40 -64 48
-97 22 -26 -20 -134 -64 -187 -76 -23 -5 -27 -12 -30 -48 -3 -39 -7 -44 -58
-75 -30 -18 -80 -41 -110 -50 -78 -24 -83 -33 -16 -33 142 0 432 105 505 184
19 20 28 23 43 15 30 -16 41 -1 34 44 -9 53 -42 127 -57 127 -7 0 -8 -6 -3
-17z"/>
<path d="M5459 4163 c-42 -50 -179 -73 -314 -53 -123 19 -119 20 -125 -20 -7
-41 -22 -71 -44 -90 -22 -17 -20 -23 17 -59 49 -49 162 -100 242 -112 97 -13
107 -27 103 -138 -2 -47 -7 -94 -12 -103 -5 -12 -4 -18 3 -18 16 0 156 284
181 369 23 76 23 121 -2 202 -12 42 -27 49 -49 22z"/>
<path d="M5304 3495 c-8 -20 -199 -163 -349 -260 -174 -114 -233 -136 -427
-161 -44 -6 -49 -4 -78 27 -43 47 -115 191 -135 269 -20 77 -31 93 -41 56 -9
-37 3 -131 31 -243 26 -102 107 -269 160 -331 32 -36 32 -36 72 -24 22 7 60
14 84 16 25 2 70 19 104 38 33 19 82 44 109 57 34 17 52 33 61 56 9 20 35 45
72 70 67 44 225 199 269 265 40 59 96 180 83 180 -5 0 -12 -7 -15 -15z"/>
<path d="M4120 3225 c0 -76 24 -195 55 -268 21 -50 20 -54 -21 -67 -59 -20
-188 -8 -259 24 -50 23 -63 25 -82 15 -33 -18 -75 -5 -201 59 -71 36 -141 80
-187 120 -69 58 -95 73 -95 54 0 -24 93 -147 169 -225 l86 -89 -33 -29 c-23
-21 -42 -29 -60 -28 -45 5 -37 -14 24 -58 75 -54 145 -75 368 -113 207 -35
219 -35 283 -14 80 27 253 148 253 176 0 5 -34 48 -76 96 -41 48 -92 119 -111
157 -45 89 -83 188 -83 219 0 13 -7 29 -15 36 -13 11 -15 3 -15 -65z"/>
<path d="M4891 2946 c-23 -28 -137 -95 -201 -119 -36 -14 -104 -33 -152 -43
-83 -17 -88 -19 -94 -47 -3 -17 -26 -49 -51 -73 -40 -39 -43 -45 -32 -66 9
-16 10 -71 5 -213 -11 -275 -12 -1270 -2 -1543 6 -157 13 -235 20 -238 7 -3
90 5 186 16 134 15 212 30 335 65 88 25 167 49 175 54 21 12 15 108 -16 291
-14 80 -32 233 -39 340 -8 107 -26 292 -40 410 -26 209 -26 226 -21 630 5 409
4 417 -17 479 -24 68 -36 81 -56 57z"/>
<path d="M4251 2583 c-19 -8 -65 -17 -103 -20 -77 -7 -88 -18 -25 -28 81 -13
77 -8 76 -98 0 -45 -4 -134 -9 -197 -5 -63 -14 -236 -20 -385 -6 -148 -22
-432 -35 -630 -14 -198 -28 -425 -31 -504 l-7 -144 104 7 c57 4 105 9 108 11
2 3 -4 116 -13 252 -30 460 -35 703 -26 1093 8 351 16 474 39 595 13 71 6 77
-58 48z"/>
<path d="M3960 4581 c-72 -23 -106 -41 -168 -90 -67 -53 -76 -70 -62 -121 13
-47 24 -50 44 -12 34 64 168 171 247 197 52 18 61 38 18 42 -13 1 -49 -6 -79
-16z"/>
<path d="M2827 4253 c-18 -18 -6 -132 21 -199 27 -64 31 -69 70 -81 23 -6 59
-25 80 -42 31 -25 60 -36 154 -55 64 -13 127 -31 140 -40 33 -22 38 -13 20 40
-13 41 -13 49 5 104 11 33 17 62 15 65 -3 3 -20 3 -37 -1 -49 -9 -296 43 -316
66 -9 10 -32 25 -51 33 -42 18 -78 61 -78 93 0 23 -10 31 -23 17z"/>
<path d="M3550 4179 c-38 -24 -151 -139 -170 -174 -10 -20 -9 -27 11 -54 12
-17 26 -31 30 -31 4 0 15 24 23 53 9 30 25 62 36 72 19 17 19 15 -4 -36 -30
-62 -34 -109 -11 -109 17 0 18 3 34 66 6 22 29 69 52 104 34 53 37 62 20 57
-28 -7 -27 -4 17 37 31 30 34 36 17 36 -11 0 -36 -10 -55 -21z"/>
<path d="M3446 3670 c26 -44 81 -91 99 -84 23 9 19 17 -37 59 -79 60 -83 62
-62 25z"/>
</g>
</svg>
